PathFileType	4	(X/Y/Z)	/Users/guillermo/Documents/TESIS/Procesamiento_videos/data/sports2d_raw/Cam1_rep/sujeto01_caml/sujeto01_rep09_camL_Sports2D/sujeto01_rep09_camL_Sports2D_px_person01.trc
DataRate	CameraRate	NumFrames	NumMarkers	Units	OrigDataRate	OrigDataStartFrame	OrigNumFrames
120.0	120.0	14	22	m	120.0	51	68
Frame#	Time	Hip			RHip			RKnee			RAnkle			RBigToe			RSmallToe			RHeel			LHip			LKnee			LAnkle			LBigToe			LSmallToe			LHeel			Neck			Head			Nose			RShoulder			RElbow			RWrist			LShoulder			LElbow			LWrist			
		X1	Y1	Z1	X2	Y2	Z2	X3	Y3	Z3	X4	Y4	Z4	X5	Y5	Z5	X6	Y6	Z6	X7	Y7	Z7	X8	Y8	Z8	X9	Y9	Z9	X10	Y10	Z10	X11	Y11	Z11	X12	Y12	Z12	X13	Y13	Z13	X14	Y14	Z14	X15	Y15	Z15	X16	Y16	Z16	X17	Y17	Z17	X18	Y18	Z18	X19	Y19	Z19	X20	Y20	Z20	X21	Y21	Z21	X22	Y22	Z22
51	0.425	928.0400390625	590.888671875	0.0	947.244140625	598.974609375	0.0	895.6962890625	686.9091796875	0.0	939.158203125	771.8115234375	0.0	902.771484375	806.1767578125	0.0	930.0615234375	802.1337890625	0.0	951.287109375	783.9404296875	0.0	905.8037109375	593.9208984375	0.0	847.1806640625	685.8984375	0.0	912.87890625	756.650390625	0.0	893.6748046875	801.123046875	0.0	897.7177734375	798.0908203125	0.0	927.029296875	761.7041015625	0.0	883.5673828125	484.7607421875	0.0	868.40625	486.7822265625	0.0	872.44921875	449.384765625	0.0	926.0185546875	490.8251953125	0.0	953.30859375	547.4267578125	0.0	952.2978515625	545.4052734375	0.0	871.4384765625	481.728515625	0.0	877.5029296875	493.857421875	0.0	910.857421875	522.158203125	0.0
52	0.43333333333333335	928.121337890625	591.163330078125	0.0	947.2036743164062	600.2023315429688	0.0	893.9739990234375	687.579345703125	0.0	938.1646728515625	771.943359375	0.0	896.9869995117188	807.0950317382812	0.0	930.1300048828125	803.0776977539062	0.0	949.2123413085938	784.9996948242188	0.0	905.0216674804688	593.1719970703125	0.0	845.7659912109375	683.56201171875	0.0	910.0433349609375	754.8696899414062	0.0	888.9523315429688	801.0690307617188	0.0	893.9739990234375	799.0603637695312	0.0	924.10400390625	760.8956909179688	0.0	880.9176635742188	490.72998046875	0.0	862.8396606445312	495.75164794921875	0.0	866.8569946289062	450.556640625	0.0	923.0996704101562	491.73431396484375	0.0	953.2296752929688	548.9813232421875	0.0	954.2340087890625	542.955322265625	0.0	868.8656616210938	487.71697998046875	0.0	878.9089965820312	499.76898193359375	0.0	909.0390014648438	525.8816528320312	0.0
53	0.44166666666666665	927.217529296875	591.5220336914062	0.0	945.1966552734375	601.5104370117188	0.0	892.2581176757812	686.411865234375	0.0	937.2059326171875	773.3109741210938	0.0	913.2337646484375	805.2738647460938	0.0	928.2163696289062	802.27734375	0.0	949.1920166015625	787.2947387695312	0.0	904.2442016601562	594.5185546875	0.0	844.3137817382812	681.4176635742188	0.0	908.2395629882812	754.3330078125	0.0	888.2627563476562	801.2785034179688	0.0	892.2581176757812	799.2808227539062	0.0	921.2244873046875	761.3248901367188	0.0	878.2743530273438	499.62872314453125	0.0	856.2998657226562	502.625244140625	0.0	861.2940673828125	549.5707397460938	0.0	919.226806640625	489.64031982421875	0.0	952.1885375976562	549.5707397460938	0.0	954.1862182617188	628.4791259765625	0.0	866.2882690429688	492.6368408203125	0.0	871.282470703125	497.63104248046875	0.0	902.2465209960938	529.5939331054688	0.0
54	0.45	926.467529296875	593.5197143554688	0.0	943.4478149414062	603.5081176757812	0.0	893.5057983398438	688.4095458984375	0.0	937.4547729492188	771.3132934570312	0.0	914.4814453125	801.2785034179688	0.0	929.4640502929688	798.281982421875	0.0	949.4408569335938	785.2970581054688	0.0	902.495361328125	597.5150756835938	0.0	841.5661010742188	680.4188232421875	0.0	906.49072265625	754.3330078125	0.0	882.5185546875	800.2796630859375	0.0	887.5127563476562	798.281982421875	0.0	918.476806640625	763.3225708007812	0.0	871.5313110351562	507.61944580078125	0.0	849.5568237304688	515.6101684570312	0.0	854.551025390625	551.5684204101562	0.0	910.486083984375	498.6298828125	0.0	949.4408569335938	551.5684204101562	0.0	954.43505859375	627.4802856445312	0.0	861.5429077148438	497.63104248046875	0.0	870.532470703125	500.6275634765625	0.0	900.4976806640625	535.5869750976562	0.0
55	0.4583333333333333	926.530517578125	593.87109375	0.0	943.40185546875	602.802978515625	0.0	890.802978515625	687.15966796875	0.0	937.447265625	771.516357421875	0.0	914.621337890625	796.3271484375	0.0	926.530517578125	793.349853515625	0.0	948.364013671875	784.41796875	0.0	901.7197265625	596.848388671875	0.0	840.18896484375	679.22021484375	0.0	902.712158203125	754.64501953125	0.0	878.893798828125	800.296875	0.0	884.848388671875	799.304443359375	0.0	914.621337890625	763.576904296875	0.0	869.9619140625	514.4765625	0.0	843.166259765625	523.408447265625	0.0	850.11328125	552.18896484375	0.0	910.651611328125	497.605224609375	0.0	950.348876953125	558.1435546875	0.0	952.333740234375	636.545654296875	0.0	858.052734375	500.58251953125	0.0	868.969482421875	502.5673828125	0.0	896.757568359375	540.27978515625	0.0
56	0.4666666666666667	925.40185546875	594.6796875	0.0	942.2109375	602.58984375	0.0	890.794921875	686.63525390625	0.0	935.28955078125	768.703125	0.0	911.55908203125	795.39990234375	0.0	924.4130859375	791.44482421875	0.0	946.166015625	781.55712890625	0.0	900.6826171875	596.6572265625	0.0	838.39013671875	678.72509765625	0.0	898.705078125	753.87158203125	0.0	874.974609375	798.3662109375	0.0	880.9072265625	796.388671875	0.0	910.5703125	764.748046875	0.0	864.09814453125	516.56689453125	0.0	840.36767578125	529.4208984375	0.0	843.333984375	553.1513671875	0.0	900.6826171875	509.6455078125	0.0	949.13232421875	556.11767578125	0.0	954.076171875	632.2529296875	0.0	853.2216796875	505.6904296875	0.0	868.05322265625	505.6904296875	0.0	890.794921875	545.2412109375	0.0
57	0.475	923.7890625	594.3193359375	0.0	940.411376953125	603.119384765625	0.0	889.566650390625	686.23095703125	0.0	935.5224609375	768.36474609375	0.0	910.10009765625	795.74267578125	0.0	924.766845703125	791.83154296875	0.0	946.278076171875	780.09814453125	0.0	900.322265625	596.27490234375	0.0	837.744140625	676.453125	0.0	895.433349609375	755.653564453125	0.0	870.010986328125	797.6982421875	0.0	875.877685546875	796.720458984375	0.0	908.14453125	765.431396484375	0.0	860.233154296875	525.87451171875	0.0	833.8330078125	536.630126953125	0.0	837.744140625	558.141357421875	0.0	905.211181640625	517.074462890625	0.0	947.255859375	597.252685546875	0.0	941.38916015625	658.85302734375	0.0	848.499755859375	510.22998046875	0.0	864.144287109375	507.296630859375	0.0	885.655517578125	549.34130859375	0.0
58	0.48333333333333334	925.3092041015625	593.830078125	0.0	940.7010498046875	603.2362060546875	0.0	889.3948974609375	686.18115234375	0.0	935.5704345703125	770.8363037109375	0.0	913.3377685546875	790.503662109375	0.0	927.0194091796875	785.373046875	0.0	947.5418701171875	782.8077392578125	0.0	903.0765380859375	596.3953857421875	0.0	837.233642578125	672.49951171875	0.0	891.960205078125	760.5750732421875	0.0	863.7418212890625	795.63427734375	0.0	869.7275390625	795.63427734375	0.0	905.641845703125	768.27099609375	0.0	854.335693359375	537.393310546875	0.0	825.26220703125	541.6688232421875	0.0	837.233642578125	566.466796875	0.0	900.51123046875	524.5667724609375	0.0	944.1214599609375	560.4810791015625	0.0	955.23779296875	624.61376953125	0.0	844.074462890625	516.0157470703125	0.0	860.3214111328125	505.7545166015625	0.0	882.5540771484375	551.9300537109375	0.0
59	0.49166666666666664	924.2754821777344	595.1709594726562	0.0	939.591796875	604.0382995605469	0.0	888.0	686.2627258300781	0.0	936.3673095703125	770.905517578125	0.0	915.4081420898438	791.0585632324219	0.0	926.69384765625	783.803466796875	0.0	946.8468933105469	781.3851013183594	0.0	904.1224365234375	596.783203125	0.0	835.6020812988281	672.5586547851562	0.0	887.1938781738281	762.8442993164062	0.0	858.1734924316406	795.8952941894531	0.0	863.8163452148438	795.0891723632812	0.0	900.89794921875	770.905517578125	0.0	848.5000305175781	540.3546752929688	0.0	821.8980102539062	545.19140625	0.0	833.1837158203125	570.1811828613281	0.0	897.6734619140625	532.29345703125	0.0	942.0101623535156	558.08935546875	0.0	946.040771484375	671.7525329589844	0.0	839.6326904296875	518.5893859863281	0.0	857.3673706054688	509.7220458984375	0.0	879.9387817382812	558.08935546875	0.0
60	0.5	925.2821960449219	591.5980224609375	0.0	940.3201904296875	601.8871765136719	0.0	886.5	684.9918823242188	0.0	936.3628234863281	771.2624816894531	0.0	914.9930419921875	791.04931640625	0.0	926.0736694335938	784.717529296875	0.0	947.4434509277344	781.5516357421875	0.0	904.7038879394531	593.9724426269531	0.0	835.0542297363281	672.3283081054688	0.0	882.5426330566406	765.72216796875	0.0	850.8836975097656	797.381103515625	0.0	856.4240112304688	796.5896301269531	0.0	895.2062072753906	773.6369018554688	0.0	846.1348571777344	543.3181457519531	0.0	818.4332885742188	548.0669860839844	0.0	831.0968627929688	571.8111877441406	0.0	900.7465209960938	536.9863586425781	0.0	935.5713500976562	622.4654846191406	0.0	930.0310363769531	674.7027282714844	0.0	836.6371765136719	520.3654174804688	0.0	854.0495910644531	512.45068359375	0.0	877.0023193359375	564.6879272460938	0.0
61	0.5083333333333333	922.9298400878906	590.4533386230469	0.0	937.6373291015625	601.2904357910156	0.0	885.7740783691406	684.8908996582031	0.0	936.0891723632812	770.0395202636719	0.0	911.3186645507812	791.7137145996094	0.0	920.6076049804688	785.5210876464844	0.0	947.7003479003906	780.8766174316406	0.0	901.2556457519531	593.5496520996094	0.0	833.9108276367188	670.1834106445312	0.0	876.4851379394531	765.3950500488281	0.0	846.2960815429688	794.8100280761719	0.0	850.9405517578125	795.5841064453125	0.0	889.6444702148438	774.6839904785156	0.0	841.651611328125	542.4604797363281	0.0	816.1070251464844	550.975341796875	0.0	828.4922790527344	574.1976928710938	0.0	885.7740783691406	528.5270690917969	0.0	937.6373291015625	562.5865173339844	0.0	939.1854858398438	672.5056457519531	0.0	833.9108276367188	521.5603637695312	0.0	853.2627868652344	516.9158935546875	0.0	871.8406677246094	571.1013793945312	0.0
62	0.5166666666666666	920.84765625	589.4033203125	0.0	935.7890625	600.609375	0.0	885.7353515625	685.0283203125	0.0	935.0419921875	770.1943359375	0.0	910.388671875	791.859375	0.0	919.353515625	787.376953125	0.0	948.4892578125	780.6533203125	0.0	898.435546875	591.64453125	0.0	832.693359375	669.33984375	0.0	870.7939453125	767.2060546875	0.0	841.658203125	794.1005859375	0.0	846.140625	794.84765625	0.0	884.2412109375	777.6650390625	0.0	838.669921875	542.337890625	0.0	814.763671875	551.302734375	0.0	825.22265625	575.208984375	0.0	880.505859375	527.396484375	0.0	932.80078125	574.4619140625	0.0	931.306640625	674.5693359375	0.0	829.705078125	524.408203125	0.0	849.12890625	519.1787109375	0.0	868.552734375	577.4501953125	0.0
63	0.525	919.9682006835938	588.8811950683594	0.0	934.8638305664062	600.0529174804688	0.0	885.708251953125	684.9580078125	0.0	935.6086120605469	769.8630981445312	0.0	910.2860412597656	790.7169799804688	0.0	918.4786376953125	786.9930725097656	0.0	948.2698974609375	780.2900390625	0.0	897.624755859375	591.1155395507812	0.0	832.083984375	667.8280334472656	0.0	864.8543701171875	769.8630981445312	0.0	835.8078918457031	792.9513244628906	0.0	839.5317993164062	795.1856689453125	0.0	877.5156555175781	780.2900390625	0.0	835.0631103515625	543.4495239257812	0.0	810.4853210449219	554.6212463378906	0.0	822.4018249511719	576.9646911621094	0.0	879.75	530.7882385253906	0.0	932.6294860839844	576.9646911621094	0.0	931.1399230957031	675.2758483886719	0.0	827.6152954101562	524.8299865722656	0.0	845.4900512695312	522.5956420898438	0.0	864.8543701171875	586.6468505859375	0.0
64	0.5333333333333333	917.8335571289062	585.9329223632812	0.0	934.7003173828125	598.399658203125	0.0	884.1000366210938	683.466796875	0.0	934.7003173828125	769.2672729492188	0.0	909.766845703125	791.2673950195312	0.0	917.1002197265625	787.6007080078125	0.0	947.1670532226562	780.267333984375	0.0	895.10009765625	589.599609375	0.0	832.0330810546875	667.3333740234375	0.0	859.89990234375	772.2006225585938	0.0	829.8330688476562	791.2673950195312	0.0	832.7664184570312	794.2007446289062	0.0	872.3666381835938	783.9340209960938	0.0	833.499755859375	544.1326904296875	0.0	806.3662719726562	555.1327514648438	0.0	819.5663452148438	578.5995483398438	0.0	881.9000244140625	532.3992919921875	0.0	931.0336303710938	598.399658203125	0.0	931.0336303710938	676.1334228515625	0.0	826.1663818359375	524.3325805664062	0.0	841.5664672851562	525.7992553710938	0.0	859.89990234375	590.3329467773438	0.0
